<svg width="32" height="32" viewBox="0 0 32 32" fill="none" xmlns="http://www.w3.org/2000/svg">
<g clip-path="url(#clip0_3134_14952)">
<path d="M22.3723 9.9937L6.72569 9.5662C6.10873 9.55048 5.50193 9.72541 4.98803 10.0672C4.47413 10.4089 4.07813 10.9008 3.85402 11.4759C3.62991 12.0509 3.58861 12.681 3.73574 13.2804C3.88287 13.8798 4.21126 14.4192 4.67616 14.8251L9.12076 18.6777C9.22498 18.7723 9.30931 18.8868 9.36881 19.0144C9.42831 19.142 9.46179 19.2802 9.46731 19.4208L9.56163 25.302C9.57039 25.8018 9.70393 26.2916 9.9501 26.7267C10.1963 27.1618 10.5473 27.5285 10.9712 27.7934C11.3951 28.0584 11.8786 28.2132 12.3775 28.2438C12.8765 28.2744 13.3752 28.1798 13.8284 27.9686C14.2507 27.7665 14.6226 27.4725 14.9166 27.1081L24.6466 14.8473C24.9911 14.411 25.2076 13.8876 25.272 13.3354C25.3363 12.7833 25.246 12.2241 25.0111 11.7203C24.7761 11.2165 24.4058 10.7879 23.9415 10.4822C23.4772 10.1766 22.937 10.006 22.3814 9.98948L22.3723 9.9937ZM23.0745 13.6054L13.3445 25.8662C13.2152 26.0239 13.0407 26.1382 12.8446 26.194C12.6484 26.2497 12.4399 26.2442 12.247 26.1781C12.0541 26.1119 11.886 25.9884 11.7653 25.8241C11.6445 25.6597 11.5769 25.4624 11.5716 25.2585L11.4682 19.3816C11.4659 19.3035 11.4591 19.2256 11.4477 19.1484L17.6922 16.2365C17.9325 16.1244 18.1185 15.9215 18.2092 15.6722C18.2999 15.423 18.2879 15.148 18.1759 14.9076C18.0638 14.6672 17.8608 14.4812 17.6116 14.3905C17.3623 14.2998 17.0873 14.3118 16.8469 14.4239L10.6025 17.3358C10.5506 17.2774 10.4953 17.2221 10.437 17.1702L6.00145 13.3134C5.84874 13.1782 5.74102 12.9996 5.69271 12.8014C5.6444 12.6033 5.65782 12.3952 5.73117 12.2049C5.80452 12.0146 5.9343 11.8513 6.1031 11.7368C6.27189 11.6224 6.47164 11.5623 6.67556 11.5646L22.3222 11.9921C22.5061 11.999 22.6846 12.0564 22.8379 12.1582C22.9913 12.2599 23.1136 12.402 23.1914 12.5688C23.2692 12.7356 23.2994 12.9207 23.2788 13.1035C23.2582 13.2864 23.1874 13.4601 23.0745 13.6054Z" fill="white"/>
</g>
<defs>
<clipPath id="clip0_3134_14952">
<rect width="24" height="24" fill="white" transform="translate(0 10.1426) rotate(-25)"/>
</clipPath>
</defs>
</svg>
