<svg width="20" height="20" viewBox="0 0 20 20" fill="none" xmlns="http://www.w3.org/2000/svg">
<path d="M18.6268 3.53936L18.6268 3.53934L2.08921 13.2028L2.19532 13.3088L2.0891 13.2029L2.08916 13.2029C2.00203 13.2901 1.93564 13.3866 1.90273 13.5177L1.90263 13.5176L1.90147 13.5231L0.873683 18.3725C0.808547 18.5801 0.881793 18.8053 1.03518 18.9588C1.1604 19.0841 1.32084 19.15 1.48443 19.15H1.58244H1.59819L1.61359 19.1467L6.46635 18.1164L6.46637 18.1165L6.47155 18.1152C6.60291 18.0824 6.69942 18.0156 6.78643 17.9285L18.5736 6.1553C19.3209 5.45898 19.3449 4.28465 18.6268 3.53936ZM17.675 5.20818L15.7486 7.15944L12.8248 4.23302L14.7764 2.30288L14.7765 2.30301L14.7815 2.29755C14.9895 2.07057 15.3335 2.06338 15.5722 2.28021L17.6775 4.38737L17.6774 4.38747L17.6822 4.39184C17.9061 4.59747 17.9192 4.94181 17.675 5.20818ZM14.8265 8.05917L6.01777 16.8757L2.3179 17.6758L3.11732 13.9724L11.9259 5.156L14.8265 8.05917Z" fill="#D3A17E" stroke="#D3A17E" stroke-width="0.3"/>
</svg>
